%TF.GenerationSoftware,KiCad,Pcbnew,7.0.6*%
%TF.CreationDate,2025-02-04T21:06:21+01:00*%
%TF.ProjectId,PCB,5043422e-6b69-4636-9164-5f7063625858,rev?*%
%TF.SameCoordinates,Original*%
%TF.FileFunction,Soldermask,Bot*%
%TF.FilePolarity,Negative*%
%FSLAX46Y46*%
G04 Gerber Fmt 4.6, Leading zero omitted, Abs format (unit mm)*
G04 Created by KiCad (PCBNEW 7.0.6) date 2025-02-04 21:06:21*
%MOMM*%
%LPD*%
G01*
G04 APERTURE LIST*
%ADD10C,7.500000*%
%ADD11R,1.700000X1.700000*%
%ADD12O,1.700000X1.700000*%
%ADD13R,2.000000X2.000000*%
%ADD14C,2.000000*%
%ADD15R,3.200000X2.000000*%
%ADD16C,1.600000*%
%ADD17O,1.600000X1.600000*%
%ADD18C,1.400000*%
%ADD19C,1.524000*%
G04 APERTURE END LIST*
D10*
%TO.C,*%
X119380000Y-111760000D03*
%TD*%
%TO.C,*%
X139700000Y-86360000D03*
%TD*%
D11*
%TO.C,J6*%
X158750000Y-66040000D03*
D12*
X161290000Y-66040000D03*
X163830000Y-66040000D03*
%TD*%
D11*
%TO.C,J5*%
X146050000Y-66040000D03*
D12*
X148590000Y-66040000D03*
X151130000Y-66040000D03*
%TD*%
D13*
%TO.C,SW1*%
X124460000Y-124540000D03*
D14*
X124460000Y-129540000D03*
X124460000Y-127040000D03*
D15*
X131960000Y-121440000D03*
X131960000Y-132640000D03*
D14*
X138960000Y-129540000D03*
X138960000Y-124540000D03*
%TD*%
D10*
%TO.C,*%
X205740000Y-66040000D03*
%TD*%
%TO.C,REF\u002A\u002A*%
X119380000Y-111760000D03*
%TD*%
D16*
%TO.C,R1*%
X135520000Y-104180000D03*
D17*
X127900000Y-104180000D03*
%TD*%
D16*
%TO.C,R2*%
X127900000Y-110290000D03*
D17*
X135520000Y-110290000D03*
%TD*%
D10*
%TO.C,*%
X144780000Y-134620000D03*
%TD*%
D11*
%TO.C,J4*%
X208280000Y-73660000D03*
D12*
X208280000Y-76200000D03*
%TD*%
D10*
%TO.C,*%
X205740000Y-134620000D03*
%TD*%
%TO.C,REF\u002A\u002A*%
X139700000Y-86360000D03*
%TD*%
D11*
%TO.C,J7*%
X171450000Y-66040000D03*
D12*
X173990000Y-66040000D03*
X176530000Y-66040000D03*
%TD*%
D18*
%TO.C,U1*%
X203200000Y-83820000D03*
X203200000Y-86360000D03*
X200660000Y-83820000D03*
X200660000Y-86360000D03*
X198120000Y-83820000D03*
X198120000Y-86360000D03*
X195580000Y-83820000D03*
X195580000Y-86360000D03*
X193040000Y-83820000D03*
X193040000Y-86360000D03*
X190500000Y-83820000D03*
X190500000Y-86360000D03*
X187960000Y-83820000D03*
X187960000Y-86360000D03*
X185420000Y-83820000D03*
X185420000Y-86360000D03*
X182880000Y-83820000D03*
X182880000Y-86360000D03*
X180340000Y-83820000D03*
X180340000Y-86360000D03*
X203200000Y-109220000D03*
X203200000Y-111760000D03*
X200660000Y-109220000D03*
X200660000Y-111760000D03*
X198120000Y-109220000D03*
X198120000Y-111760000D03*
X195580000Y-109220000D03*
X195580000Y-111760000D03*
X193040000Y-109220000D03*
X193040000Y-111760000D03*
X190500000Y-109220000D03*
X190500000Y-111760000D03*
X187960000Y-109220000D03*
X187960000Y-111760000D03*
X185420000Y-109220000D03*
X185420000Y-111760000D03*
X182880000Y-109220000D03*
X182880000Y-111760000D03*
X180340000Y-109220000D03*
X180340000Y-111760000D03*
%TD*%
D11*
%TO.C,J9*%
X109220000Y-113030000D03*
D12*
X109220000Y-110490000D03*
X109220000Y-107950000D03*
%TD*%
D19*
%TO.C,U2*%
X154940000Y-93980000D03*
X157480000Y-93980000D03*
X160020000Y-93980000D03*
X162560000Y-93980000D03*
X165100000Y-93980000D03*
X167640000Y-93980000D03*
X154940000Y-83820000D03*
X157480000Y-83820000D03*
X160020000Y-83820000D03*
X162560000Y-83820000D03*
X165100000Y-83820000D03*
X167640000Y-83820000D03*
%TD*%
D16*
%TO.C,R3*%
X127900000Y-116880000D03*
D17*
X135520000Y-116880000D03*
%TD*%
D11*
%TO.C,J11*%
X109220000Y-90170000D03*
D12*
X109220000Y-87630000D03*
X109220000Y-85090000D03*
%TD*%
D10*
%TO.C,REF\u002A\u002A*%
X109220000Y-66040000D03*
%TD*%
D11*
%TO.C,J8*%
X184165000Y-66040000D03*
D12*
X186705000Y-66040000D03*
X189245000Y-66040000D03*
%TD*%
D11*
%TO.C,J2*%
X132080000Y-66040000D03*
D12*
X134620000Y-66040000D03*
X137160000Y-66040000D03*
%TD*%
D11*
%TO.C,J1*%
X120650000Y-66040000D03*
D12*
X123190000Y-66040000D03*
X125730000Y-66040000D03*
%TD*%
D11*
%TO.C,J0*%
X109220000Y-76200000D03*
D12*
X109220000Y-78740000D03*
%TD*%
D11*
%TO.C,J10*%
X109220000Y-101600000D03*
D12*
X109220000Y-99060000D03*
X109220000Y-96520000D03*
%TD*%
D10*
%TO.C,REF\u002A\u002A*%
X144780000Y-134620000D03*
%TD*%
D11*
%TO.C,J3*%
X163820000Y-113030000D03*
D12*
X161280000Y-113030000D03*
X158740000Y-113030000D03*
X156200000Y-113030000D03*
%TD*%
D10*
%TO.C,*%
X109220000Y-66040000D03*
%TD*%
%TO.C,REF\u002A\u002A*%
X109220000Y-134620000D03*
%TD*%
%TO.C,REF\u002A\u002A*%
X205740000Y-66040000D03*
%TD*%
M02*
