%TF.GenerationSoftware,KiCad,Pcbnew,7.0.6*%
%TF.CreationDate,2025-02-04T21:06:21+01:00*%
%TF.ProjectId,PCB,5043422e-6b69-4636-9164-5f7063625858,rev?*%
%TF.SameCoordinates,Original*%
%TF.FileFunction,Copper,L2,Bot*%
%TF.FilePolarity,Positive*%
%FSLAX46Y46*%
G04 Gerber Fmt 4.6, Leading zero omitted, Abs format (unit mm)*
G04 Created by KiCad (PCBNEW 7.0.6) date 2025-02-04 21:06:21*
%MOMM*%
%LPD*%
G01*
G04 APERTURE LIST*
%TA.AperFunction,ComponentPad*%
%ADD10C,7.500000*%
%TD*%
%TA.AperFunction,ComponentPad*%
%ADD11R,1.700000X1.700000*%
%TD*%
%TA.AperFunction,ComponentPad*%
%ADD12O,1.700000X1.700000*%
%TD*%
%TA.AperFunction,ComponentPad*%
%ADD13R,2.000000X2.000000*%
%TD*%
%TA.AperFunction,ComponentPad*%
%ADD14C,2.000000*%
%TD*%
%TA.AperFunction,ComponentPad*%
%ADD15R,3.200000X2.000000*%
%TD*%
%TA.AperFunction,ComponentPad*%
%ADD16C,1.600000*%
%TD*%
%TA.AperFunction,ComponentPad*%
%ADD17O,1.600000X1.600000*%
%TD*%
%TA.AperFunction,ComponentPad*%
%ADD18C,1.400000*%
%TD*%
%TA.AperFunction,ComponentPad*%
%ADD19C,1.524000*%
%TD*%
%TA.AperFunction,ViaPad*%
%ADD20C,0.800000*%
%TD*%
%TA.AperFunction,Conductor*%
%ADD21C,0.500000*%
%TD*%
%TA.AperFunction,Conductor*%
%ADD22C,0.250000*%
%TD*%
G04 APERTURE END LIST*
D10*
%TO.P,,1*%
%TO.N,GND*%
X119380000Y-111760000D03*
%TD*%
%TO.P,,1*%
%TO.N,GND*%
X139700000Y-86360000D03*
%TD*%
D11*
%TO.P,J6,1,Pin_1*%
%TO.N,5VCC*%
X158750000Y-66040000D03*
D12*
%TO.P,J6,2,Pin_2*%
%TO.N,Net-(J6-Pin_2)*%
X161290000Y-66040000D03*
%TO.P,J6,3,Pin_3*%
%TO.N,GND*%
X163830000Y-66040000D03*
%TD*%
D11*
%TO.P,J5,1,Pin_1*%
%TO.N,5VCC*%
X146050000Y-66040000D03*
D12*
%TO.P,J5,2,Pin_2*%
%TO.N,Net-(J5-Pin_2)*%
X148590000Y-66040000D03*
%TO.P,J5,3,Pin_3*%
%TO.N,GND*%
X151130000Y-66040000D03*
%TD*%
D13*
%TO.P,SW1,A,A*%
%TO.N,Net-(U1-IO_10{slash}SD3)*%
X124460000Y-124540000D03*
D14*
%TO.P,SW1,B,B*%
%TO.N,Net-(U1-IO_13{slash}TCK)*%
X124460000Y-129540000D03*
%TO.P,SW1,C,C*%
%TO.N,GND*%
X124460000Y-127040000D03*
D15*
%TO.P,SW1,MP*%
%TO.N,N/C*%
X131960000Y-121440000D03*
X131960000Y-132640000D03*
D14*
%TO.P,SW1,S1,S1*%
%TO.N,GND*%
X138960000Y-129540000D03*
%TO.P,SW1,S2,S2*%
%TO.N,Net-(U1-IO_26{slash}D0)*%
X138960000Y-124540000D03*
%TD*%
D10*
%TO.P,,1*%
%TO.N,GND*%
X205740000Y-66040000D03*
%TD*%
%TO.P,REF\u002A\u002A,1*%
%TO.N,GND*%
X119380000Y-111760000D03*
%TD*%
D16*
%TO.P,R1,1*%
%TO.N,3V3*%
X135520000Y-104180000D03*
D17*
%TO.P,R1,2*%
%TO.N,Net-(U1-IO_10{slash}SD3)*%
X127900000Y-104180000D03*
%TD*%
D16*
%TO.P,R2,1*%
%TO.N,Net-(U1-IO_13{slash}TCK)*%
X127900000Y-110290000D03*
D17*
%TO.P,R2,2*%
%TO.N,3V3*%
X135520000Y-110290000D03*
%TD*%
D10*
%TO.P,,1*%
%TO.N,GND*%
X144780000Y-134620000D03*
%TD*%
D11*
%TO.P,J4,1,Pin_1*%
%TO.N,Net-(J4-Pin_1)*%
X208280000Y-73660000D03*
D12*
%TO.P,J4,2,Pin_2*%
%TO.N,GND*%
X208280000Y-76200000D03*
%TD*%
D10*
%TO.P,,1*%
%TO.N,GND*%
X205740000Y-134620000D03*
%TD*%
%TO.P,REF\u002A\u002A,1*%
%TO.N,GND*%
X139700000Y-86360000D03*
%TD*%
D11*
%TO.P,J7,1,Pin_1*%
%TO.N,GND*%
X171450000Y-66040000D03*
D12*
%TO.P,J7,2,Pin_2*%
%TO.N,3V3*%
X173990000Y-66040000D03*
%TO.P,J7,3,Pin_3*%
%TO.N,Net-(J7-Pin_3)*%
X176530000Y-66040000D03*
%TD*%
D18*
%TO.P,U1,40,CLK*%
%TO.N,unconnected-(U1-CLK-Pad40)*%
X203200000Y-83820000D03*
%TO.P,U1,39,SD0*%
%TO.N,unconnected-(U1-SD0-Pad39)*%
X203200000Y-86360000D03*
%TO.P,U1,38,SD1*%
%TO.N,unconnected-(U1-SD1-Pad38)*%
X200660000Y-83820000D03*
%TO.P,U1,37,TD0*%
%TO.N,unconnected-(U1-TD0-Pad37)*%
X200660000Y-86360000D03*
%TO.P,U1,36,IO_02*%
%TO.N,unconnected-(U1-IO_02-Pad36)*%
X198120000Y-83820000D03*
%TO.P,U1,35,VCC_(USB)*%
%TO.N,5VCC*%
X198120000Y-86360000D03*
%TO.P,U1,34,IO_00*%
%TO.N,unconnected-(U1-IO_00-Pad34)*%
X195580000Y-83820000D03*
%TO.P,U1,33,GND*%
%TO.N,GND*%
X195580000Y-86360000D03*
%TO.P,U1,32,IO_04*%
%TO.N,unconnected-(U1-IO_04-Pad32)*%
X193040000Y-83820000D03*
%TO.P,U1,31,IO_16/D4*%
%TO.N,unconnected-(U1-IO_16{slash}D4-Pad31)*%
X193040000Y-86360000D03*
%TO.P,U1,30,IO_12/TDI*%
%TO.N,Net-(J8-Pin_3)*%
X190500000Y-83820000D03*
%TO.P,U1,29,IO_17/D3*%
%TO.N,Net-(U1-IO_17{slash}D3)*%
X190500000Y-86360000D03*
%TO.P,U1,28,IO_32*%
%TO.N,unconnected-(U1-IO_32-Pad28)*%
X187960000Y-83820000D03*
%TO.P,U1,27,IO_21/D2/SDA*%
%TO.N,Net-(J3-Pin_4)*%
X187960000Y-86360000D03*
%TO.P,U1,26,IO_25*%
%TO.N,Net-(U1-IO_25)*%
X185420000Y-83820000D03*
%TO.P,U1,25,IO_22/D1/SCL*%
%TO.N,Net-(J3-Pin_3)*%
X185420000Y-86360000D03*
%TO.P,U1,24,IO_27*%
%TO.N,unconnected-(U1-IO_27-Pad24)*%
X182880000Y-83820000D03*
%TO.P,U1,23,RXD*%
%TO.N,unconnected-(U1-RXD-Pad23)*%
X182880000Y-86360000D03*
%TO.P,U1,22,GND*%
%TO.N,GND*%
X180340000Y-83820000D03*
%TO.P,U1,21,TXD*%
%TO.N,unconnected-(U1-TXD-Pad21)*%
X180340000Y-86360000D03*
%TO.P,U1,20,IO_10/SD3*%
%TO.N,Net-(U1-IO_10{slash}SD3)*%
X203200000Y-109220000D03*
%TO.P,U1,19,CMD*%
%TO.N,unconnected-(U1-CMD-Pad19)*%
X203200000Y-111760000D03*
%TO.P,U1,18,IO_13/TCK*%
%TO.N,Net-(U1-IO_13{slash}TCK)*%
X200660000Y-109220000D03*
%TO.P,U1,17,IO_09/SD2*%
%TO.N,Net-(J7-Pin_3)*%
X200660000Y-111760000D03*
%TO.P,U1,16,3V3*%
%TO.N,3V3*%
X198120000Y-109220000D03*
%TO.P,U1,15,NC*%
%TO.N,unconnected-(U1-NC-Pad15)*%
X198120000Y-111760000D03*
%TO.P,U1,14,IO_05/D8*%
%TO.N,Net-(U1-IO_05{slash}D8)*%
X195580000Y-109220000D03*
%TO.P,U1,13,IO_14/TMS*%
%TO.N,unconnected-(U1-IO_14{slash}TMS-Pad13)*%
X195580000Y-111760000D03*
%TO.P,U1,12,IO_23/D7*%
%TO.N,Net-(U1-IO_23{slash}D7)*%
X193040000Y-109220000D03*
%TO.P,U1,11,IO_34*%
%TO.N,unconnected-(U1-IO_34-Pad11)*%
X193040000Y-111760000D03*
%TO.P,U1,10,IO_19/D6*%
%TO.N,unconnected-(U1-IO_19{slash}D6-Pad10)*%
X190500000Y-109220000D03*
%TO.P,U1,9,IO_33*%
%TO.N,unconnected-(U1-IO_33-Pad9)*%
X190500000Y-111760000D03*
%TO.P,U1,8,IO_18/D5*%
%TO.N,unconnected-(U1-IO_18{slash}D5-Pad8)*%
X187960000Y-109220000D03*
%TO.P,U1,7,IO_35*%
%TO.N,unconnected-(U1-IO_35-Pad7)*%
X187960000Y-111760000D03*
%TO.P,U1,6,IO_26/D0*%
%TO.N,Net-(U1-IO_26{slash}D0)*%
X185420000Y-109220000D03*
%TO.P,U1,5,IO_39/SVN*%
%TO.N,unconnected-(U1-IO_39{slash}SVN-Pad5)*%
X185420000Y-111760000D03*
%TO.P,U1,4,IO_36/SVP/A0*%
%TO.N,unconnected-(U1-IO_36{slash}SVP{slash}A0-Pad4)*%
X182880000Y-109220000D03*
%TO.P,U1,3,NC*%
%TO.N,unconnected-(U1-NC-Pad3)*%
X182880000Y-111760000D03*
%TO.P,U1,2,RST*%
%TO.N,Net-(J4-Pin_1)*%
X180340000Y-109220000D03*
%TO.P,U1,1,GND*%
%TO.N,GND*%
X180340000Y-111760000D03*
%TD*%
D11*
%TO.P,J9,1,Pin_1*%
%TO.N,GND*%
X109220000Y-113030000D03*
D12*
%TO.P,J9,2,Pin_2*%
X109220000Y-110490000D03*
%TO.P,J9,3,Pin_3*%
X109220000Y-107950000D03*
%TD*%
D19*
%TO.P,U2,1,LV1*%
%TO.N,Net-(U1-IO_05{slash}D8)*%
X154940000Y-93980000D03*
%TO.P,U2,2,LV2*%
%TO.N,Net-(U1-IO_17{slash}D3)*%
X157480000Y-93980000D03*
%TO.P,U2,3,LV*%
%TO.N,3V3*%
X160020000Y-93980000D03*
%TO.P,U2,4,GND*%
%TO.N,GND*%
X162560000Y-93980000D03*
%TO.P,U2,5,LV3*%
%TO.N,Net-(U1-IO_23{slash}D7)*%
X165100000Y-93980000D03*
%TO.P,U2,6,LV4*%
%TO.N,Net-(U1-IO_25)*%
X167640000Y-93980000D03*
%TO.P,U2,7,HV1*%
%TO.N,Net-(J1-Pin_2)*%
X154940000Y-83820000D03*
%TO.P,U2,8,HV2*%
%TO.N,Net-(J2-Pin_2)*%
X157480000Y-83820000D03*
%TO.P,U2,9,HV*%
%TO.N,5VCC*%
X160020000Y-83820000D03*
%TO.P,U2,10,GND*%
%TO.N,GND*%
X162560000Y-83820000D03*
%TO.P,U2,11,HV3*%
%TO.N,Net-(J5-Pin_2)*%
X165100000Y-83820000D03*
%TO.P,U2,12,HV4*%
%TO.N,Net-(J6-Pin_2)*%
X167640000Y-83820000D03*
%TD*%
D16*
%TO.P,R3,1*%
%TO.N,Net-(U1-IO_26{slash}D0)*%
X127900000Y-116880000D03*
D17*
%TO.P,R3,2*%
%TO.N,3V3*%
X135520000Y-116880000D03*
%TD*%
D11*
%TO.P,J11,1,Pin_1*%
%TO.N,5VCC*%
X109220000Y-90170000D03*
D12*
%TO.P,J11,2,Pin_2*%
X109220000Y-87630000D03*
%TO.P,J11,3,Pin_3*%
X109220000Y-85090000D03*
%TD*%
D10*
%TO.P,REF\u002A\u002A,1*%
%TO.N,GND*%
X109220000Y-66040000D03*
%TD*%
D11*
%TO.P,J8,1,Pin_1*%
%TO.N,GND*%
X184165000Y-66040000D03*
D12*
%TO.P,J8,2,Pin_2*%
%TO.N,3V3*%
X186705000Y-66040000D03*
%TO.P,J8,3,Pin_3*%
%TO.N,Net-(J8-Pin_3)*%
X189245000Y-66040000D03*
%TD*%
D11*
%TO.P,J2,1,Pin_1*%
%TO.N,5VCC*%
X132080000Y-66040000D03*
D12*
%TO.P,J2,2,Pin_2*%
%TO.N,Net-(J2-Pin_2)*%
X134620000Y-66040000D03*
%TO.P,J2,3,Pin_3*%
%TO.N,GND*%
X137160000Y-66040000D03*
%TD*%
D11*
%TO.P,J1,1,Pin_1*%
%TO.N,5VCC*%
X120650000Y-66040000D03*
D12*
%TO.P,J1,2,Pin_2*%
%TO.N,Net-(J1-Pin_2)*%
X123190000Y-66040000D03*
%TO.P,J1,3,Pin_3*%
%TO.N,GND*%
X125730000Y-66040000D03*
%TD*%
D11*
%TO.P,J0,1,Pin_1*%
%TO.N,5VCC*%
X109220000Y-76200000D03*
D12*
%TO.P,J0,2,Pin_2*%
%TO.N,GND*%
X109220000Y-78740000D03*
%TD*%
D11*
%TO.P,J10,1,Pin_1*%
%TO.N,3V3*%
X109220000Y-101600000D03*
D12*
%TO.P,J10,2,Pin_2*%
X109220000Y-99060000D03*
%TO.P,J10,3,Pin_3*%
X109220000Y-96520000D03*
%TD*%
D10*
%TO.P,REF\u002A\u002A,1*%
%TO.N,GND*%
X144780000Y-134620000D03*
%TD*%
D11*
%TO.P,J3,1,Pin_1*%
%TO.N,GND*%
X163820000Y-113030000D03*
D12*
%TO.P,J3,2,Pin_2*%
%TO.N,3V3*%
X161280000Y-113030000D03*
%TO.P,J3,3,Pin_3*%
%TO.N,Net-(J3-Pin_3)*%
X158740000Y-113030000D03*
%TO.P,J3,4,Pin_4*%
%TO.N,Net-(J3-Pin_4)*%
X156200000Y-113030000D03*
%TD*%
D10*
%TO.P,,1*%
%TO.N,GND*%
X109220000Y-66040000D03*
%TD*%
%TO.P,REF\u002A\u002A,1*%
%TO.N,GND*%
X109220000Y-134620000D03*
%TD*%
%TO.P,REF\u002A\u002A,1*%
%TO.N,GND*%
X205740000Y-66040000D03*
%TD*%
D20*
%TO.N,5VCC*%
X173355000Y-79375000D03*
%TO.N,3V3*%
X167640000Y-115570000D03*
%TO.N,Net-(J3-Pin_3)*%
X165100000Y-110490000D03*
%TO.N,Net-(J3-Pin_4)*%
X167640000Y-109220000D03*
%TO.N,Net-(U1-IO_10{slash}SD3)*%
X199390000Y-106680000D03*
%TO.N,Net-(U1-IO_23{slash}D7)*%
X180340000Y-101600000D03*
%TO.N,Net-(U1-IO_05{slash}D8)*%
X177800000Y-100330000D03*
%TD*%
D21*
%TO.N,GND*%
X180340000Y-116840000D02*
X180340000Y-111760000D01*
X193040000Y-129540000D02*
X180340000Y-116840000D01*
X205740000Y-134620000D02*
X200660000Y-129540000D01*
X200660000Y-129540000D02*
X193040000Y-129540000D01*
%TO.N,5VCC*%
X196850000Y-85090000D02*
X198120000Y-86360000D01*
X173990000Y-80010000D02*
X194310000Y-80010000D01*
X196850000Y-82550000D02*
X196850000Y-85090000D01*
X173355000Y-79375000D02*
X173990000Y-80010000D01*
X194310000Y-80010000D02*
X196850000Y-82550000D01*
D22*
%TO.N,Net-(J1-Pin_2)*%
X154940000Y-83820000D02*
X138335000Y-67215000D01*
X124365000Y-67215000D02*
X123190000Y-66040000D01*
X138335000Y-67215000D02*
X124365000Y-67215000D01*
%TO.N,Net-(J2-Pin_2)*%
X135795000Y-64865000D02*
X134620000Y-66040000D01*
X138525000Y-64865000D02*
X135795000Y-64865000D01*
X157480000Y-83820000D02*
X138525000Y-64865000D01*
%TO.N,3V3*%
X167640000Y-115570000D02*
X163820000Y-115570000D01*
X163820000Y-115570000D02*
X161280000Y-113030000D01*
%TO.N,Net-(J3-Pin_3)*%
X165100000Y-110490000D02*
X161280000Y-110490000D01*
X161280000Y-110490000D02*
X158740000Y-113030000D01*
%TO.N,Net-(J3-Pin_4)*%
X160010000Y-109220000D02*
X167640000Y-109220000D01*
X156200000Y-113030000D02*
X160010000Y-109220000D01*
%TO.N,Net-(J5-Pin_2)*%
X165100000Y-82550000D02*
X148590000Y-66040000D01*
X165100000Y-83820000D02*
X165100000Y-82550000D01*
%TO.N,Net-(J6-Pin_2)*%
X167640000Y-83820000D02*
X167640000Y-72390000D01*
X167640000Y-72390000D02*
X161290000Y-66040000D01*
%TO.N,Net-(J7-Pin_3)*%
X201930000Y-96699569D02*
X201930000Y-110490000D01*
X172630000Y-79831396D02*
X174078604Y-81280000D01*
X201930000Y-110490000D02*
X200660000Y-111760000D01*
X172630000Y-69940000D02*
X172630000Y-79831396D01*
X176530000Y-66040000D02*
X172630000Y-69940000D01*
X194310000Y-89079569D02*
X201930000Y-96699569D01*
X194310000Y-83640431D02*
X194310000Y-89079569D01*
X191949569Y-81280000D02*
X194310000Y-83640431D01*
X174078604Y-81280000D02*
X191949569Y-81280000D01*
%TO.N,Net-(U1-IO_10{slash}SD3)*%
X199390000Y-106680000D02*
X130400000Y-106680000D01*
X130400000Y-106680000D02*
X127900000Y-104180000D01*
%TO.N,Net-(U1-IO_13{slash}TCK)*%
X155733604Y-107130000D02*
X198570000Y-107130000D01*
X127900000Y-110290000D02*
X130445000Y-107745000D01*
X121920000Y-127000000D02*
X124460000Y-129540000D01*
X198570000Y-107130000D02*
X200660000Y-109220000D01*
X127900000Y-110290000D02*
X121920000Y-116270000D01*
X155118604Y-107745000D02*
X155733604Y-107130000D01*
X130445000Y-107745000D02*
X155118604Y-107745000D01*
X121920000Y-116270000D02*
X121920000Y-127000000D01*
%TO.N,Net-(U1-IO_26{slash}D0)*%
X138960000Y-124540000D02*
X155305000Y-108195000D01*
X155305000Y-108195000D02*
X184395000Y-108195000D01*
X184395000Y-108195000D02*
X185420000Y-109220000D01*
%TO.N,Net-(J4-Pin_1)*%
X208280000Y-73660000D02*
X207180000Y-73660000D01*
X207180000Y-73660000D02*
X207105000Y-73735000D01*
X181365000Y-112150000D02*
X181365000Y-110245000D01*
X184150000Y-114935000D02*
X181365000Y-112150000D01*
X207105000Y-113570000D02*
X205740000Y-114935000D01*
X205740000Y-114935000D02*
X184150000Y-114935000D01*
X207105000Y-73735000D02*
X207105000Y-113570000D01*
X181365000Y-110245000D02*
X180340000Y-109220000D01*
%TO.N,Net-(U1-IO_23{slash}D7)*%
X168910000Y-97790000D02*
X165100000Y-93980000D01*
X176530000Y-97790000D02*
X168910000Y-97790000D01*
X180340000Y-101600000D02*
X176530000Y-97790000D01*
%TO.N,Net-(U1-IO_05{slash}D8)*%
X161290000Y-100330000D02*
X154940000Y-93980000D01*
X177800000Y-100330000D02*
X161290000Y-100330000D01*
%TO.N,Net-(U1-IO_25)*%
X174169569Y-93980000D02*
X167640000Y-93980000D01*
X183905000Y-85335000D02*
X182455431Y-85335000D01*
X185420000Y-83820000D02*
X183905000Y-85335000D01*
X181365000Y-86784569D02*
X174169569Y-93980000D01*
X182455431Y-85335000D02*
X181365000Y-86425431D01*
X181365000Y-86425431D02*
X181365000Y-86784569D01*
%TO.N,Net-(U1-IO_17{slash}D3)*%
X186445000Y-83395431D02*
X185844569Y-82795000D01*
X160287251Y-92710000D02*
X158750000Y-92710000D01*
X187535431Y-85335000D02*
X186445000Y-84244569D01*
X185844569Y-82795000D02*
X170202251Y-82795000D01*
X190500000Y-86360000D02*
X189475000Y-85335000D01*
X189475000Y-85335000D02*
X187535431Y-85335000D01*
X186445000Y-84244569D02*
X186445000Y-83395431D01*
X170202251Y-82795000D02*
X160287251Y-92710000D01*
X158750000Y-92710000D02*
X157480000Y-93980000D01*
%TD*%
M02*
