M48
; DRILL file {KiCad 7.0.6} date Tue Feb  4 21:06:18 2025
; FORMAT={-:-/ absolute / inch / decimal}
; #@! TF.CreationDate,2025-02-04T21:06:18+01:00
; #@! TF.GenerationSoftware,Kicad,Pcbnew,7.0.6
; #@! TF.FileFunction,Plated,1,2,PTH
FMAT,2
INCH
; #@! TA.AperFunction,Plated,PTH,ViaDrill
T1C0.0157
; #@! TA.AperFunction,Plated,PTH,ComponentDrill
T2C0.0300
; #@! TA.AperFunction,Plated,PTH,ComponentDrill
T3C0.0315
; #@! TA.AperFunction,Plated,PTH,ComponentDrill
T4C0.0394
; #@! TA.AperFunction,Plated,PTH,ComponentDrill
T5C0.0591
; #@! TA.AperFunction,Plated,PTH,ComponentDrill
T6C0.1693
%
G90
G05
T1
X6.5Y-4.35
X6.6Y-4.3
X6.6Y-4.55
X6.825Y-3.125
X7.0Y-3.95
X7.1Y-4.0
X7.85Y-4.2
T2
X6.1Y-3.3
X6.1Y-3.7
X6.2Y-3.3
X6.2Y-3.7
X6.3Y-3.3
X6.3Y-3.7
X6.4Y-3.3
X6.4Y-3.7
X6.5Y-3.3
X6.5Y-3.7
X6.6Y-3.3
X6.6Y-3.7
T3
X5.0354Y-4.1016
X5.0354Y-4.3421
X5.0354Y-4.6016
X5.3354Y-4.1016
X5.3354Y-4.3421
X5.3354Y-4.6016
X7.1Y-3.3
X7.1Y-3.4
X7.1Y-4.3
X7.1Y-4.4
X7.2Y-3.3
X7.2Y-3.4
X7.2Y-4.3
X7.2Y-4.4
X7.3Y-3.3
X7.3Y-3.4
X7.3Y-4.3
X7.3Y-4.4
X7.4Y-3.3
X7.4Y-3.4
X7.4Y-4.3
X7.4Y-4.4
X7.5Y-3.3
X7.5Y-3.4
X7.5Y-4.3
X7.5Y-4.4
X7.6Y-3.3
X7.6Y-3.4
X7.6Y-4.3
X7.6Y-4.4
X7.7Y-3.3
X7.7Y-3.4
X7.7Y-4.3
X7.7Y-4.4
X7.8Y-3.3
X7.8Y-3.4
X7.8Y-4.3
X7.8Y-4.4
X7.9Y-3.3
X7.9Y-3.4
X7.9Y-4.3
X7.9Y-4.4
X8.0Y-3.3
X8.0Y-3.4
X8.0Y-4.3
X8.0Y-4.4
T4
X4.3Y-3.0
X4.3Y-3.1
X4.3Y-3.35
X4.3Y-3.45
X4.3Y-3.55
X4.3Y-3.8
X4.3Y-3.9
X4.3Y-4.0
X4.3Y-4.25
X4.3Y-4.35
X4.3Y-4.45
X4.75Y-2.6
X4.85Y-2.6
X4.9Y-4.9031
X4.9Y-5.0016
X4.9Y-5.1
X4.95Y-2.6
X5.2Y-2.6
X5.3Y-2.6
X5.4Y-2.6
X5.4709Y-4.9031
X5.4709Y-5.1
X5.75Y-2.6
X5.85Y-2.6
X5.95Y-2.6
X6.1496Y-4.45
X6.2496Y-4.45
X6.25Y-2.6
X6.3496Y-4.45
X6.35Y-2.6
X6.4496Y-4.45
X6.45Y-2.6
X6.75Y-2.6
X6.85Y-2.6
X6.95Y-2.6
X7.2506Y-2.6
X7.3506Y-2.6
X7.4506Y-2.6
X8.2Y-2.9
X8.2Y-3.0
T6
X4.3Y-2.6
X4.3Y-2.6
X4.3Y-5.3
X4.7Y-4.4
X4.7Y-4.4
X5.5Y-3.4
X5.5Y-3.4
X5.7Y-5.3
X5.7Y-5.3
X8.1Y-2.6
X8.1Y-2.6
X8.1Y-5.3
T5
G00X5.1697Y-4.7811
M15
G01X5.2209Y-4.7811
M16
G05
G00X5.1697Y-5.222
M15
G01X5.2209Y-5.222
M16
G05
T0
M30
